<svg xmlns="http://www.w3.org/2000/svg" width="1280.16" height="333.375" viewBox="0 0 4800 1250">
  <defs>
    <style>
      .cls-1 {
        fill: #1b2437;
      }

      .cls-1, .cls-2 {
        fill-rule: evenodd;
      }

      .cls-2 {
        fill: #33994d;
      }
    </style>
  </defs>
  <path class="cls-1" d="M4234,179v51H3635v782h782V411h51V987c0,19.29,1.69,42.36-6,54-1,.67-2,1.33-3,2v2c-1,.67-2,1.33-3,2v2q-7.005,4.995-14,10c-14.26,6.28-40.88,4-61,4H3666c-16.92,0-36.47,1.23-49-3-2.33-.33-4.67-0.67-7-1v-1h-2c-0.33-.67-0.67-1.33-1-2h-2c-0.67-1-1.33-2-2-3h-2c-1.67-2-3.33-4-5-6-0.67-.33-1.33-0.67-2-1v-2c-1-.67-2-1.33-3-2v-2h-1c-0.67-2-1.33-4-2-6h-1c-4.38-11.03-3-30.76-3-46V220h1v-4h1v-4h1c0.33-2.333.67-4.667,1-7,0.67-.333,1.33-0.667,2-1,0.33-1.333.67-2.667,1-4l3-2v-2l6-5c0.33-.667.67-1.333,1-2,16.22-11.638,35.5-10,63-10h570Z"/>
  <path id="Vendreo" class="cls-1" d="M617.938,303.266l-124.5,351.563q-7.69,21.612-13.916,41.2t-10.985,37.719q-4.764,18.128-8.422,34.973-3.664-16.839-8.423-34.79t-10.8-37.353q-6.042-19.407-13.732-40.65L301.921,303.266H236.74l192.247,535.4h62.618l192.246-535.4H617.938ZM846.4,455.61q-39.736,25.638-61.519,73.059T763.094,640.913q0,66.287,23.8,112.06t66.829,69.4q43.023,23.62,100.883,23.621,40.647,0,70.492-6.226a296.847,296.847,0,0,0,60.24-19.775V766.523a371.184,371.184,0,0,1-60.79,20.508q-29.295,6.962-67.378,6.958-61.889,0-95.941-36.987T826.078,649.336h277.2v-37.72q0-54.562-19.41-95.4t-56.02-63.538q-36.63-22.7-87.889-22.7Q886.132,429.975,846.4,455.61Zm149.22,39.368q21.973,15.2,32.769,42.48t11.17,63.172H827.176q5.493-57.129,34.421-88.99t77.632-31.86Q973.644,479.78,995.621,494.978Zm386.839-57.495a147.536,147.536,0,0,0-44.31,21.972,121.674,121.674,0,0,0-32.59,35.706h-3.3l-9.15-57.862h-49.07V838.667h60.79V628.462q0-71.772,27.09-109.5t93.75-37.72q47.235,0,70.12,24.9t22.89,75.073V838.667h60.05V577.192q0-77.265-36.62-112.244t-108.02-34.973A175.548,175.548,0,0,0,1382.46,437.483Zm558.39,399.9q23.985-8.6,41.38-23.254a141.587,141.587,0,0,0,28.75-32.593h2.56l9.16,57.129h49.06V268.842h-60.78V429.609q0,12.454,1.46,32.227t2.93,31.128h-4.39a141.243,141.243,0,0,0-28.93-32.044q-17.22-14.094-41.01-22.522-23.82-8.419-55.66-8.423-75.45,0-120.84,52.918-45.42,52.923-45.41,156.555,0,102.541,44.49,154.541t120.66,52Q1916.86,845.991,1940.85,837.385Zm-131.09-82.214q-27.66-40.281-27.65-114.258,0-74.338,27.83-117.371t83.86-43.03q67.005,0,92.46,41.016t25.45,117.554v10.986q0,72.15-26.73,108.765t-91.18,36.621Q1837.4,795.454,1809.76,755.171Zm558.58-314.209a135.92,135.92,0,0,0-40.83,29.48,201.32,201.32,0,0,0-30.03,40.832h-2.56l-6.59-73.975h-50.54V838.667h61.16V623.335q0-31.124,9.15-56.58t25.27-43.579a111.206,111.206,0,0,1,37.53-27.832,109.257,109.257,0,0,1,45.59-9.7,189.8,189.8,0,0,1,22.7,1.465,170.175,170.175,0,0,1,21.98,4.028l7.68-56.4a209.988,209.988,0,0,0-23.43-3.479q-13.185-1.28-25.27-1.282Q2391.59,429.975,2368.34,440.962Zm274.42,14.648q-39.75,25.638-61.52,73.059-21.795,47.43-21.79,112.244,0,66.287,23.8,112.06t66.83,69.4q43.02,23.62,100.88,23.621,40.65,0,70.49-6.226a296.444,296.444,0,0,0,60.24-19.775V766.523a371.184,371.184,0,0,1-60.79,20.508q-29.3,6.962-67.37,6.958-61.89,0-95.94-36.987-34.065-36.985-35.16-107.666h277.2v-37.72q0-54.562-19.4-95.4-19.425-40.83-56.03-63.538t-87.88-22.7Q2682.485,429.975,2642.76,455.61Zm149.22,39.368q21.96,15.2,32.77,42.48t11.17,63.172H2623.53q5.49-57.129,34.42-88.99t77.63-31.86Q2770.005,479.78,2791.98,494.978Zm571.57,30.4q-22.89-46.323-64.08-70.862t-96.12-24.536q-57.495,0-99.05,24.353t-63.9,70.679q-22.35,46.332-22.34,112.244,0,49.439,13.36,88.256t37.72,65.552A162.554,162.554,0,0,0,3127,831.892q33.51,14.092,73.78,14.1,43.215,0,77.45-14.1a159.386,159.386,0,0,0,58.41-40.833q24.165-26.727,36.98-65.552t12.82-88.256Q3386.44,571.7,3363.55,525.373Zm-253.4-2.746q29.115-41.379,91.73-41.382,42.48,0,69.21,19.043t39.55,54.016q12.81,34.976,12.82,82.947,0,48.339-12.82,83.862t-39.73,54.932q-26.91,19.415-68.66,19.409-42.12,0-68.84-19.409-26.745-19.407-39.55-54.932-12.825-35.517-12.82-83.862Q3081.04,564.011,3110.15,522.627Z"/>
  <path id="tick" class="cls-2" d="M3728.4,429.833s269.98,378.333,293.31,473.334C4381.68,291.5,4694.99,49.833,4694.99,49.833S4285.02,223.166,4021.71,596.5C3958.38,518.166,3728.4,429.833,3728.4,429.833Z"/>
</svg>
